<mxfile host="app.diagrams.net" modified="2021-07-15T09:56:57.008Z" agent="5.0 (Windows NT 10.0; Win64; x64) AppleWebKit/537.36 (KHTML, like Gecko) Chrome/91.0.4472.124 Safari/537.36" etag="_TPzeClzy3CN4TUOCzWz" version="14.8.6" type="github" pages="2">
  <diagram id="mv8RBhBeNP8rz2Sbl9xh" name="Page-1">
    <mxGraphModel dx="1609" dy="421" grid="1" gridSize="10" guides="1" tooltips="1" connect="1" arrows="1" fold="1" page="1" pageScale="1" pageWidth="827" pageHeight="1169" math="0" shadow="0">
      <root>
        <mxCell id="0" />
        <mxCell id="1" parent="0" />
        <mxCell id="IXatOdltlv221_80leF_-1" value="Đơn đặt hàng" style="whiteSpace=wrap;html=1;align=center;fillColor=#dae8fc;strokeColor=#6c8ebf;" parent="1" vertex="1">
          <mxGeometry x="100" y="760" width="100" height="40" as="geometry" />
        </mxCell>
        <mxCell id="IXatOdltlv221_80leF_-2" value="Khách hàng" style="whiteSpace=wrap;html=1;align=center;fillColor=#dae8fc;strokeColor=#6c8ebf;" parent="1" vertex="1">
          <mxGeometry x="590" y="760" width="100" height="40" as="geometry" />
        </mxCell>
        <mxCell id="IXatOdltlv221_80leF_-3" value="Nhà cung cấp" style="whiteSpace=wrap;html=1;align=center;fillColor=#dae8fc;strokeColor=#6c8ebf;" parent="1" vertex="1">
          <mxGeometry x="590" y="565" width="100" height="40" as="geometry" />
        </mxCell>
        <mxCell id="IXatOdltlv221_80leF_-4" value="Mặt hàng" style="whiteSpace=wrap;html=1;align=center;fillColor=#dae8fc;strokeColor=#6c8ebf;" parent="1" vertex="1">
          <mxGeometry x="100" y="565" width="100" height="40" as="geometry" />
        </mxCell>
        <mxCell id="IXatOdltlv221_80leF_-6" value="cung cấp bởi" style="shape=rhombus;perimeter=rhombusPerimeter;whiteSpace=wrap;html=1;align=center;fillColor=#ffe6cc;strokeColor=#d79b00;" parent="1" vertex="1">
          <mxGeometry x="340" y="570" width="100" height="40" as="geometry" />
        </mxCell>
        <mxCell id="IXatOdltlv221_80leF_-8" value="có" style="shape=rhombus;perimeter=rhombusPerimeter;whiteSpace=wrap;html=1;align=center;fillColor=#ffe6cc;strokeColor=#d79b00;" parent="1" vertex="1">
          <mxGeometry x="100" y="660" width="100" height="40" as="geometry" />
        </mxCell>
        <mxCell id="IXatOdltlv221_80leF_-9" value="đặt" style="shape=rhombus;perimeter=rhombusPerimeter;whiteSpace=wrap;html=1;align=center;fillColor=#ffe6cc;strokeColor=#d79b00;" parent="1" vertex="1">
          <mxGeometry x="350" y="760" width="100" height="40" as="geometry" />
        </mxCell>
        <mxCell id="IXatOdltlv221_80leF_-10" value="" style="endArrow=none;html=1;rounded=0;exitX=1;exitY=0.5;exitDx=0;exitDy=0;entryX=0;entryY=0.5;entryDx=0;entryDy=0;" parent="1" source="IXatOdltlv221_80leF_-1" target="IXatOdltlv221_80leF_-9" edge="1">
          <mxGeometry relative="1" as="geometry">
            <mxPoint x="320" y="650" as="sourcePoint" />
            <mxPoint x="480" y="650" as="targetPoint" />
          </mxGeometry>
        </mxCell>
        <mxCell id="IXatOdltlv221_80leF_-11" value="" style="endArrow=none;html=1;rounded=0;exitX=0.5;exitY=1;exitDx=0;exitDy=0;entryX=0.5;entryY=0;entryDx=0;entryDy=0;" parent="1" source="IXatOdltlv221_80leF_-4" target="IXatOdltlv221_80leF_-8" edge="1">
          <mxGeometry relative="1" as="geometry">
            <mxPoint x="330" y="660" as="sourcePoint" />
            <mxPoint x="490" y="660" as="targetPoint" />
          </mxGeometry>
        </mxCell>
        <mxCell id="IXatOdltlv221_80leF_-12" value="" style="endArrow=none;html=1;rounded=0;exitX=0.5;exitY=0;exitDx=0;exitDy=0;" parent="1" source="IXatOdltlv221_80leF_-1" target="IXatOdltlv221_80leF_-8" edge="1">
          <mxGeometry relative="1" as="geometry">
            <mxPoint x="340" y="670" as="sourcePoint" />
            <mxPoint x="500" y="670" as="targetPoint" />
          </mxGeometry>
        </mxCell>
        <mxCell id="IXatOdltlv221_80leF_-13" value="" style="endArrow=none;html=1;rounded=0;exitX=1;exitY=0.5;exitDx=0;exitDy=0;entryX=0;entryY=0.5;entryDx=0;entryDy=0;" parent="1" source="IXatOdltlv221_80leF_-4" target="IXatOdltlv221_80leF_-6" edge="1">
          <mxGeometry relative="1" as="geometry">
            <mxPoint x="350" y="680" as="sourcePoint" />
            <mxPoint x="510" y="680" as="targetPoint" />
          </mxGeometry>
        </mxCell>
        <mxCell id="IXatOdltlv221_80leF_-14" value="" style="endArrow=none;html=1;rounded=0;exitX=1;exitY=0.5;exitDx=0;exitDy=0;entryX=0;entryY=0.5;entryDx=0;entryDy=0;" parent="1" source="IXatOdltlv221_80leF_-6" target="IXatOdltlv221_80leF_-3" edge="1">
          <mxGeometry relative="1" as="geometry">
            <mxPoint x="360" y="690" as="sourcePoint" />
            <mxPoint x="520" y="690" as="targetPoint" />
          </mxGeometry>
        </mxCell>
        <mxCell id="IXatOdltlv221_80leF_-15" value="" style="endArrow=none;html=1;rounded=0;exitX=1;exitY=0.5;exitDx=0;exitDy=0;entryX=0;entryY=0.5;entryDx=0;entryDy=0;" parent="1" source="IXatOdltlv221_80leF_-9" target="IXatOdltlv221_80leF_-2" edge="1">
          <mxGeometry relative="1" as="geometry">
            <mxPoint x="370" y="700" as="sourcePoint" />
            <mxPoint x="530" y="700" as="targetPoint" />
          </mxGeometry>
        </mxCell>
        <mxCell id="IXatOdltlv221_80leF_-17" value="SĐT" style="ellipse;whiteSpace=wrap;html=1;align=center;" parent="1" vertex="1">
          <mxGeometry x="720" y="585" width="100" height="40" as="geometry" />
        </mxCell>
        <mxCell id="IXatOdltlv221_80leF_-18" value="Địa chỉ" style="ellipse;whiteSpace=wrap;html=1;align=center;" parent="1" vertex="1">
          <mxGeometry x="720" y="525" width="100" height="40" as="geometry" />
        </mxCell>
        <mxCell id="IXatOdltlv221_80leF_-19" value="Tên&amp;nbsp;" style="ellipse;whiteSpace=wrap;html=1;align=center;" parent="1" vertex="1">
          <mxGeometry x="670" y="480" width="100" height="40" as="geometry" />
        </mxCell>
        <mxCell id="IXatOdltlv221_80leF_-20" value="Tên" style="ellipse;whiteSpace=wrap;html=1;align=center;" parent="1" vertex="1">
          <mxGeometry x="30" y="490" width="100" height="40" as="geometry" />
        </mxCell>
        <mxCell id="IXatOdltlv221_80leF_-21" value="Giá" style="ellipse;whiteSpace=wrap;html=1;align=center;" parent="1" vertex="1">
          <mxGeometry x="160" y="490" width="100" height="40" as="geometry" />
        </mxCell>
        <mxCell id="IXatOdltlv221_80leF_-23" value="Số lượng" style="ellipse;whiteSpace=wrap;html=1;align=center;" parent="1" vertex="1">
          <mxGeometry x="100" y="840" width="100" height="40" as="geometry" />
        </mxCell>
        <mxCell id="IXatOdltlv221_80leF_-24" value="1" style="text;strokeColor=none;fillColor=none;spacingLeft=4;spacingRight=4;overflow=hidden;rotatable=0;points=[[0,0.5],[1,0.5]];portConstraint=eastwest;fontSize=12;" parent="1" vertex="1">
          <mxGeometry x="550" y="750" width="40" height="30" as="geometry" />
        </mxCell>
        <mxCell id="IXatOdltlv221_80leF_-25" value="n" style="text;strokeColor=none;fillColor=none;spacingLeft=4;spacingRight=4;overflow=hidden;rotatable=0;points=[[0,0.5],[1,0.5]];portConstraint=eastwest;fontSize=12;" parent="1" vertex="1">
          <mxGeometry x="150" y="730" width="40" height="30" as="geometry" />
        </mxCell>
        <mxCell id="IXatOdltlv221_80leF_-26" value="n" style="text;strokeColor=none;fillColor=none;spacingLeft=4;spacingRight=4;overflow=hidden;rotatable=0;points=[[0,0.5],[1,0.5]];portConstraint=eastwest;fontSize=12;" parent="1" vertex="1">
          <mxGeometry x="150" y="610" width="40" height="30" as="geometry" />
        </mxCell>
        <mxCell id="IXatOdltlv221_80leF_-27" value="n" style="text;strokeColor=none;fillColor=none;spacingLeft=4;spacingRight=4;overflow=hidden;rotatable=0;points=[[0,0.5],[1,0.5]];portConstraint=eastwest;fontSize=12;" parent="1" vertex="1">
          <mxGeometry x="210" y="560" width="40" height="30" as="geometry" />
        </mxCell>
        <mxCell id="IXatOdltlv221_80leF_-28" value="1" style="text;strokeColor=none;fillColor=none;spacingLeft=4;spacingRight=4;overflow=hidden;rotatable=0;points=[[0,0.5],[1,0.5]];portConstraint=eastwest;fontSize=12;" parent="1" vertex="1">
          <mxGeometry x="550" y="555" width="40" height="30" as="geometry" />
        </mxCell>
        <mxCell id="IXatOdltlv221_80leF_-29" value="n" style="text;strokeColor=none;fillColor=none;spacingLeft=4;spacingRight=4;overflow=hidden;rotatable=0;points=[[0,0.5],[1,0.5]];portConstraint=eastwest;fontSize=12;" parent="1" vertex="1">
          <mxGeometry x="200" y="755" width="40" height="20" as="geometry" />
        </mxCell>
        <mxCell id="IXatOdltlv221_80leF_-31" value="" style="endArrow=none;html=1;rounded=0;exitX=0.5;exitY=1;exitDx=0;exitDy=0;entryX=0.5;entryY=0;entryDx=0;entryDy=0;" parent="1" source="IXatOdltlv221_80leF_-1" target="IXatOdltlv221_80leF_-23" edge="1">
          <mxGeometry relative="1" as="geometry">
            <mxPoint x="320" y="750" as="sourcePoint" />
            <mxPoint x="480" y="750" as="targetPoint" />
          </mxGeometry>
        </mxCell>
        <mxCell id="IXatOdltlv221_80leF_-33" value="" style="endArrow=none;html=1;rounded=0;exitX=0.653;exitY=1.033;exitDx=0;exitDy=0;entryX=0.25;entryY=0;entryDx=0;entryDy=0;exitPerimeter=0;" parent="1" source="IXatOdltlv221_80leF_-20" target="IXatOdltlv221_80leF_-4" edge="1">
          <mxGeometry relative="1" as="geometry">
            <mxPoint x="160" y="810" as="sourcePoint" />
            <mxPoint x="160" y="850" as="targetPoint" />
          </mxGeometry>
        </mxCell>
        <mxCell id="IXatOdltlv221_80leF_-34" value="" style="endArrow=none;html=1;rounded=0;exitX=0.5;exitY=1;exitDx=0;exitDy=0;entryX=0.5;entryY=0;entryDx=0;entryDy=0;" parent="1" source="IXatOdltlv221_80leF_-19" target="IXatOdltlv221_80leF_-3" edge="1">
          <mxGeometry relative="1" as="geometry">
            <mxPoint x="170" y="820" as="sourcePoint" />
            <mxPoint x="170" y="860" as="targetPoint" />
          </mxGeometry>
        </mxCell>
        <mxCell id="IXatOdltlv221_80leF_-35" value="" style="endArrow=none;html=1;rounded=0;exitX=0.5;exitY=1;exitDx=0;exitDy=0;entryX=0.5;entryY=0;entryDx=0;entryDy=0;" parent="1" source="IXatOdltlv221_80leF_-21" target="IXatOdltlv221_80leF_-4" edge="1">
          <mxGeometry relative="1" as="geometry">
            <mxPoint x="180" y="830" as="sourcePoint" />
            <mxPoint x="180" y="870" as="targetPoint" />
          </mxGeometry>
        </mxCell>
        <mxCell id="IXatOdltlv221_80leF_-36" value="" style="endArrow=none;html=1;rounded=0;exitX=0;exitY=1;exitDx=0;exitDy=0;" parent="1" source="IXatOdltlv221_80leF_-18" edge="1">
          <mxGeometry relative="1" as="geometry">
            <mxPoint x="190" y="840" as="sourcePoint" />
            <mxPoint x="690" y="570" as="targetPoint" />
          </mxGeometry>
        </mxCell>
        <mxCell id="IXatOdltlv221_80leF_-37" value="" style="endArrow=none;html=1;rounded=0;exitX=0;exitY=0.5;exitDx=0;exitDy=0;" parent="1" source="IXatOdltlv221_80leF_-17" target="IXatOdltlv221_80leF_-3" edge="1">
          <mxGeometry relative="1" as="geometry">
            <mxPoint x="200" y="850" as="sourcePoint" />
            <mxPoint x="200" y="890" as="targetPoint" />
          </mxGeometry>
        </mxCell>
        <mxCell id="IXatOdltlv221_80leF_-38" value="Tên" style="ellipse;whiteSpace=wrap;html=1;align=center;" parent="1" vertex="1">
          <mxGeometry x="720" y="740" width="100" height="40" as="geometry" />
        </mxCell>
        <mxCell id="IXatOdltlv221_80leF_-39" value="Địa chỉ" style="ellipse;whiteSpace=wrap;html=1;align=center;" parent="1" vertex="1">
          <mxGeometry x="690" y="830" width="100" height="40" as="geometry" />
        </mxCell>
        <mxCell id="IXatOdltlv221_80leF_-41" value="" style="endArrow=none;html=1;rounded=0;entryX=1;entryY=0.75;entryDx=0;entryDy=0;exitX=0.5;exitY=0;exitDx=0;exitDy=0;" parent="1" source="IXatOdltlv221_80leF_-39" target="IXatOdltlv221_80leF_-2" edge="1">
          <mxGeometry relative="1" as="geometry">
            <mxPoint x="730" y="830" as="sourcePoint" />
            <mxPoint x="160" y="850" as="targetPoint" />
          </mxGeometry>
        </mxCell>
        <mxCell id="IXatOdltlv221_80leF_-42" value="" style="endArrow=none;html=1;rounded=0;exitX=0;exitY=0.5;exitDx=0;exitDy=0;entryX=1;entryY=0.5;entryDx=0;entryDy=0;" parent="1" source="IXatOdltlv221_80leF_-38" target="IXatOdltlv221_80leF_-2" edge="1">
          <mxGeometry relative="1" as="geometry">
            <mxPoint x="170" y="820" as="sourcePoint" />
            <mxPoint x="170" y="860" as="targetPoint" />
          </mxGeometry>
        </mxCell>
        <mxCell id="IXatOdltlv221_80leF_-44" value="Mã đơn hàng" style="ellipse;whiteSpace=wrap;html=1;align=center;fontStyle=5;" parent="1" vertex="1">
          <mxGeometry x="-10" y="810" width="100" height="40" as="geometry" />
        </mxCell>
        <mxCell id="IXatOdltlv221_80leF_-45" value="Mã nhà cung cấp" style="ellipse;whiteSpace=wrap;html=1;align=center;fontStyle=5;" parent="1" vertex="1">
          <mxGeometry x="550" y="480" width="100" height="40" as="geometry" />
        </mxCell>
        <mxCell id="IXatOdltlv221_80leF_-46" value="Mã mặt hàng" style="ellipse;whiteSpace=wrap;html=1;align=center;fontStyle=5;" parent="1" vertex="1">
          <mxGeometry x="-10" y="565" width="100" height="40" as="geometry" />
        </mxCell>
        <mxCell id="IXatOdltlv221_80leF_-48" value="Mã khách hàng" style="ellipse;whiteSpace=wrap;html=1;align=center;fontStyle=5;" parent="1" vertex="1">
          <mxGeometry x="570" y="830" width="100" height="40" as="geometry" />
        </mxCell>
        <mxCell id="IXatOdltlv221_80leF_-50" value="" style="endArrow=none;html=1;rounded=0;exitX=1;exitY=0;exitDx=0;exitDy=0;entryX=0;entryY=1;entryDx=0;entryDy=0;" parent="1" source="IXatOdltlv221_80leF_-44" target="IXatOdltlv221_80leF_-1" edge="1">
          <mxGeometry relative="1" as="geometry">
            <mxPoint x="160" y="810" as="sourcePoint" />
            <mxPoint x="160" y="850" as="targetPoint" />
          </mxGeometry>
        </mxCell>
        <mxCell id="IXatOdltlv221_80leF_-51" value="" style="endArrow=none;html=1;rounded=0;exitX=1;exitY=0.5;exitDx=0;exitDy=0;entryX=0;entryY=0.5;entryDx=0;entryDy=0;" parent="1" source="IXatOdltlv221_80leF_-46" target="IXatOdltlv221_80leF_-4" edge="1">
          <mxGeometry relative="1" as="geometry">
            <mxPoint x="170" y="820" as="sourcePoint" />
            <mxPoint x="170" y="860" as="targetPoint" />
          </mxGeometry>
        </mxCell>
        <mxCell id="IXatOdltlv221_80leF_-52" value="" style="endArrow=none;html=1;rounded=0;exitX=0.5;exitY=1;exitDx=0;exitDy=0;entryX=0.5;entryY=0;entryDx=0;entryDy=0;" parent="1" source="IXatOdltlv221_80leF_-45" target="IXatOdltlv221_80leF_-3" edge="1">
          <mxGeometry relative="1" as="geometry">
            <mxPoint x="180" y="830" as="sourcePoint" />
            <mxPoint x="180" y="870" as="targetPoint" />
          </mxGeometry>
        </mxCell>
        <mxCell id="IXatOdltlv221_80leF_-53" value="" style="endArrow=none;html=1;rounded=0;exitX=0.5;exitY=1;exitDx=0;exitDy=0;entryX=0.5;entryY=0;entryDx=0;entryDy=0;" parent="1" source="IXatOdltlv221_80leF_-2" target="IXatOdltlv221_80leF_-48" edge="1">
          <mxGeometry relative="1" as="geometry">
            <mxPoint x="190" y="840" as="sourcePoint" />
            <mxPoint x="190" y="880" as="targetPoint" />
          </mxGeometry>
        </mxCell>
      </root>
    </mxGraphModel>
  </diagram>
  <diagram id="XjlvxOo7t_Dg8KdTtVGc" name="Page-2">
    <mxGraphModel dx="782" dy="421" grid="1" gridSize="10" guides="1" tooltips="1" connect="1" arrows="1" fold="1" page="1" pageScale="1" pageWidth="827" pageHeight="1169" math="0" shadow="0">
      <root>
        <mxCell id="LY6R_Js-3bQTXguNfcxW-0" />
        <mxCell id="LY6R_Js-3bQTXguNfcxW-1" parent="LY6R_Js-3bQTXguNfcxW-0" />
        <mxCell id="LY6R_Js-3bQTXguNfcxW-2" value="Nhà cung cấp" style="shape=table;startSize=30;container=1;collapsible=1;childLayout=tableLayout;fixedRows=1;rowLines=0;fontStyle=1;align=center;resizeLast=1;" vertex="1" parent="LY6R_Js-3bQTXguNfcxW-1">
          <mxGeometry x="150" y="600" width="180" height="160" as="geometry" />
        </mxCell>
        <mxCell id="LY6R_Js-3bQTXguNfcxW-3" value="" style="shape=partialRectangle;collapsible=0;dropTarget=0;pointerEvents=0;fillColor=none;top=0;left=0;bottom=1;right=0;points=[[0,0.5],[1,0.5]];portConstraint=eastwest;" vertex="1" parent="LY6R_Js-3bQTXguNfcxW-2">
          <mxGeometry y="30" width="180" height="30" as="geometry" />
        </mxCell>
        <mxCell id="LY6R_Js-3bQTXguNfcxW-4" value="PK" style="shape=partialRectangle;connectable=0;fillColor=none;top=0;left=0;bottom=0;right=0;fontStyle=1;overflow=hidden;" vertex="1" parent="LY6R_Js-3bQTXguNfcxW-3">
          <mxGeometry width="30" height="30" as="geometry" />
        </mxCell>
        <mxCell id="LY6R_Js-3bQTXguNfcxW-5" value="Mã nhà cung cấp" style="shape=partialRectangle;connectable=0;fillColor=none;top=0;left=0;bottom=0;right=0;align=left;spacingLeft=6;fontStyle=5;overflow=hidden;" vertex="1" parent="LY6R_Js-3bQTXguNfcxW-3">
          <mxGeometry x="30" width="150" height="30" as="geometry" />
        </mxCell>
        <mxCell id="LY6R_Js-3bQTXguNfcxW-6" value="" style="shape=partialRectangle;collapsible=0;dropTarget=0;pointerEvents=0;fillColor=none;top=0;left=0;bottom=0;right=0;points=[[0,0.5],[1,0.5]];portConstraint=eastwest;" vertex="1" parent="LY6R_Js-3bQTXguNfcxW-2">
          <mxGeometry y="60" width="180" height="30" as="geometry" />
        </mxCell>
        <mxCell id="LY6R_Js-3bQTXguNfcxW-7" value="" style="shape=partialRectangle;connectable=0;fillColor=none;top=0;left=0;bottom=0;right=0;editable=1;overflow=hidden;" vertex="1" parent="LY6R_Js-3bQTXguNfcxW-6">
          <mxGeometry width="30" height="30" as="geometry" />
        </mxCell>
        <mxCell id="LY6R_Js-3bQTXguNfcxW-8" value="Tên nhà cung cấp" style="shape=partialRectangle;connectable=0;fillColor=none;top=0;left=0;bottom=0;right=0;align=left;spacingLeft=6;overflow=hidden;" vertex="1" parent="LY6R_Js-3bQTXguNfcxW-6">
          <mxGeometry x="30" width="150" height="30" as="geometry" />
        </mxCell>
        <mxCell id="LY6R_Js-3bQTXguNfcxW-9" value="" style="shape=partialRectangle;collapsible=0;dropTarget=0;pointerEvents=0;fillColor=none;top=0;left=0;bottom=0;right=0;points=[[0,0.5],[1,0.5]];portConstraint=eastwest;" vertex="1" parent="LY6R_Js-3bQTXguNfcxW-2">
          <mxGeometry y="90" width="180" height="30" as="geometry" />
        </mxCell>
        <mxCell id="LY6R_Js-3bQTXguNfcxW-10" value="" style="shape=partialRectangle;connectable=0;fillColor=none;top=0;left=0;bottom=0;right=0;editable=1;overflow=hidden;" vertex="1" parent="LY6R_Js-3bQTXguNfcxW-9">
          <mxGeometry width="30" height="30" as="geometry" />
        </mxCell>
        <mxCell id="LY6R_Js-3bQTXguNfcxW-11" value="Địa chỉ " style="shape=partialRectangle;connectable=0;fillColor=none;top=0;left=0;bottom=0;right=0;align=left;spacingLeft=6;overflow=hidden;" vertex="1" parent="LY6R_Js-3bQTXguNfcxW-9">
          <mxGeometry x="30" width="150" height="30" as="geometry" />
        </mxCell>
        <mxCell id="LY6R_Js-3bQTXguNfcxW-12" value="" style="shape=partialRectangle;collapsible=0;dropTarget=0;pointerEvents=0;fillColor=none;top=0;left=0;bottom=0;right=0;points=[[0,0.5],[1,0.5]];portConstraint=eastwest;" vertex="1" parent="LY6R_Js-3bQTXguNfcxW-2">
          <mxGeometry y="120" width="180" height="30" as="geometry" />
        </mxCell>
        <mxCell id="LY6R_Js-3bQTXguNfcxW-13" value="" style="shape=partialRectangle;connectable=0;fillColor=none;top=0;left=0;bottom=0;right=0;editable=1;overflow=hidden;" vertex="1" parent="LY6R_Js-3bQTXguNfcxW-12">
          <mxGeometry width="30" height="30" as="geometry" />
        </mxCell>
        <mxCell id="LY6R_Js-3bQTXguNfcxW-14" value="SĐT" style="shape=partialRectangle;connectable=0;fillColor=none;top=0;left=0;bottom=0;right=0;align=left;spacingLeft=6;overflow=hidden;" vertex="1" parent="LY6R_Js-3bQTXguNfcxW-12">
          <mxGeometry x="30" width="150" height="30" as="geometry" />
        </mxCell>
        <mxCell id="LY6R_Js-3bQTXguNfcxW-15" value="Mặt hàng" style="shape=table;startSize=30;container=1;collapsible=1;childLayout=tableLayout;fixedRows=1;rowLines=0;fontStyle=1;align=center;resizeLast=1;" vertex="1" parent="LY6R_Js-3bQTXguNfcxW-1">
          <mxGeometry x="540" y="590" width="180" height="160" as="geometry" />
        </mxCell>
        <mxCell id="LY6R_Js-3bQTXguNfcxW-16" value="" style="shape=partialRectangle;collapsible=0;dropTarget=0;pointerEvents=0;fillColor=none;top=0;left=0;bottom=1;right=0;points=[[0,0.5],[1,0.5]];portConstraint=eastwest;" vertex="1" parent="LY6R_Js-3bQTXguNfcxW-15">
          <mxGeometry y="30" width="180" height="30" as="geometry" />
        </mxCell>
        <mxCell id="LY6R_Js-3bQTXguNfcxW-17" value="PK" style="shape=partialRectangle;connectable=0;fillColor=none;top=0;left=0;bottom=0;right=0;fontStyle=1;overflow=hidden;" vertex="1" parent="LY6R_Js-3bQTXguNfcxW-16">
          <mxGeometry width="30" height="30" as="geometry" />
        </mxCell>
        <mxCell id="LY6R_Js-3bQTXguNfcxW-18" value="Mã mặt hàng" style="shape=partialRectangle;connectable=0;fillColor=none;top=0;left=0;bottom=0;right=0;align=left;spacingLeft=6;fontStyle=5;overflow=hidden;" vertex="1" parent="LY6R_Js-3bQTXguNfcxW-16">
          <mxGeometry x="30" width="150" height="30" as="geometry" />
        </mxCell>
        <mxCell id="LY6R_Js-3bQTXguNfcxW-19" value="" style="shape=partialRectangle;collapsible=0;dropTarget=0;pointerEvents=0;fillColor=none;top=0;left=0;bottom=0;right=0;points=[[0,0.5],[1,0.5]];portConstraint=eastwest;" vertex="1" parent="LY6R_Js-3bQTXguNfcxW-15">
          <mxGeometry y="60" width="180" height="30" as="geometry" />
        </mxCell>
        <mxCell id="LY6R_Js-3bQTXguNfcxW-20" value="" style="shape=partialRectangle;connectable=0;fillColor=none;top=0;left=0;bottom=0;right=0;editable=1;overflow=hidden;" vertex="1" parent="LY6R_Js-3bQTXguNfcxW-19">
          <mxGeometry width="30" height="30" as="geometry" />
        </mxCell>
        <mxCell id="LY6R_Js-3bQTXguNfcxW-21" value="Tên mặt hàng" style="shape=partialRectangle;connectable=0;fillColor=none;top=0;left=0;bottom=0;right=0;align=left;spacingLeft=6;overflow=hidden;" vertex="1" parent="LY6R_Js-3bQTXguNfcxW-19">
          <mxGeometry x="30" width="150" height="30" as="geometry" />
        </mxCell>
        <mxCell id="LY6R_Js-3bQTXguNfcxW-22" value="" style="shape=partialRectangle;collapsible=0;dropTarget=0;pointerEvents=0;fillColor=none;top=0;left=0;bottom=0;right=0;points=[[0,0.5],[1,0.5]];portConstraint=eastwest;" vertex="1" parent="LY6R_Js-3bQTXguNfcxW-15">
          <mxGeometry y="90" width="180" height="30" as="geometry" />
        </mxCell>
        <mxCell id="LY6R_Js-3bQTXguNfcxW-23" value="" style="shape=partialRectangle;connectable=0;fillColor=none;top=0;left=0;bottom=0;right=0;editable=1;overflow=hidden;" vertex="1" parent="LY6R_Js-3bQTXguNfcxW-22">
          <mxGeometry width="30" height="30" as="geometry" />
        </mxCell>
        <mxCell id="LY6R_Js-3bQTXguNfcxW-24" value="Giá" style="shape=partialRectangle;connectable=0;fillColor=none;top=0;left=0;bottom=0;right=0;align=left;spacingLeft=6;overflow=hidden;" vertex="1" parent="LY6R_Js-3bQTXguNfcxW-22">
          <mxGeometry x="30" width="150" height="30" as="geometry" />
        </mxCell>
        <mxCell id="LY6R_Js-3bQTXguNfcxW-25" value="" style="shape=partialRectangle;collapsible=0;dropTarget=0;pointerEvents=0;fillColor=none;top=0;left=0;bottom=0;right=0;points=[[0,0.5],[1,0.5]];portConstraint=eastwest;" vertex="1" parent="LY6R_Js-3bQTXguNfcxW-15">
          <mxGeometry y="120" width="180" height="30" as="geometry" />
        </mxCell>
        <mxCell id="LY6R_Js-3bQTXguNfcxW-26" value="FK" style="shape=partialRectangle;connectable=0;fillColor=none;top=0;left=0;bottom=0;right=0;editable=1;overflow=hidden;fontStyle=1" vertex="1" parent="LY6R_Js-3bQTXguNfcxW-25">
          <mxGeometry width="30" height="30" as="geometry" />
        </mxCell>
        <mxCell id="LY6R_Js-3bQTXguNfcxW-27" value="Mã nhà cung cấp" style="shape=partialRectangle;connectable=0;fillColor=none;top=0;left=0;bottom=0;right=0;align=left;spacingLeft=6;overflow=hidden;" vertex="1" parent="LY6R_Js-3bQTXguNfcxW-25">
          <mxGeometry x="30" width="150" height="30" as="geometry" />
        </mxCell>
        <mxCell id="LY6R_Js-3bQTXguNfcxW-28" value="Đơn đặt hàng" style="shape=table;startSize=30;container=1;collapsible=1;childLayout=tableLayout;fixedRows=1;rowLines=0;fontStyle=1;align=center;resizeLast=1;" vertex="1" parent="LY6R_Js-3bQTXguNfcxW-1">
          <mxGeometry x="150" y="780" width="180" height="130" as="geometry" />
        </mxCell>
        <mxCell id="LY6R_Js-3bQTXguNfcxW-29" value="" style="shape=partialRectangle;collapsible=0;dropTarget=0;pointerEvents=0;fillColor=none;top=0;left=0;bottom=1;right=0;points=[[0,0.5],[1,0.5]];portConstraint=eastwest;" vertex="1" parent="LY6R_Js-3bQTXguNfcxW-28">
          <mxGeometry y="30" width="180" height="30" as="geometry" />
        </mxCell>
        <mxCell id="LY6R_Js-3bQTXguNfcxW-30" value="PK" style="shape=partialRectangle;connectable=0;fillColor=none;top=0;left=0;bottom=0;right=0;fontStyle=1;overflow=hidden;" vertex="1" parent="LY6R_Js-3bQTXguNfcxW-29">
          <mxGeometry width="30" height="30" as="geometry" />
        </mxCell>
        <mxCell id="LY6R_Js-3bQTXguNfcxW-31" value="Mã đơn đặt hàng" style="shape=partialRectangle;connectable=0;fillColor=none;top=0;left=0;bottom=0;right=0;align=left;spacingLeft=6;fontStyle=5;overflow=hidden;" vertex="1" parent="LY6R_Js-3bQTXguNfcxW-29">
          <mxGeometry x="30" width="150" height="30" as="geometry" />
        </mxCell>
        <mxCell id="LY6R_Js-3bQTXguNfcxW-32" value="" style="shape=partialRectangle;collapsible=0;dropTarget=0;pointerEvents=0;fillColor=none;top=0;left=0;bottom=0;right=0;points=[[0,0.5],[1,0.5]];portConstraint=eastwest;" vertex="1" parent="LY6R_Js-3bQTXguNfcxW-28">
          <mxGeometry y="60" width="180" height="30" as="geometry" />
        </mxCell>
        <mxCell id="LY6R_Js-3bQTXguNfcxW-33" value="" style="shape=partialRectangle;connectable=0;fillColor=none;top=0;left=0;bottom=0;right=0;editable=1;overflow=hidden;" vertex="1" parent="LY6R_Js-3bQTXguNfcxW-32">
          <mxGeometry width="30" height="30" as="geometry" />
        </mxCell>
        <mxCell id="LY6R_Js-3bQTXguNfcxW-34" value="Số lượng" style="shape=partialRectangle;connectable=0;fillColor=none;top=0;left=0;bottom=0;right=0;align=left;spacingLeft=6;overflow=hidden;" vertex="1" parent="LY6R_Js-3bQTXguNfcxW-32">
          <mxGeometry x="30" width="150" height="30" as="geometry" />
        </mxCell>
        <mxCell id="LY6R_Js-3bQTXguNfcxW-35" value="" style="shape=partialRectangle;collapsible=0;dropTarget=0;pointerEvents=0;fillColor=none;top=0;left=0;bottom=0;right=0;points=[[0,0.5],[1,0.5]];portConstraint=eastwest;" vertex="1" parent="LY6R_Js-3bQTXguNfcxW-28">
          <mxGeometry y="90" width="180" height="30" as="geometry" />
        </mxCell>
        <mxCell id="LY6R_Js-3bQTXguNfcxW-36" value="FK" style="shape=partialRectangle;connectable=0;fillColor=none;top=0;left=0;bottom=0;right=0;editable=1;overflow=hidden;fontStyle=1" vertex="1" parent="LY6R_Js-3bQTXguNfcxW-35">
          <mxGeometry width="30" height="30" as="geometry" />
        </mxCell>
        <mxCell id="LY6R_Js-3bQTXguNfcxW-37" value="Mã khách hàng" style="shape=partialRectangle;connectable=0;fillColor=none;top=0;left=0;bottom=0;right=0;align=left;spacingLeft=6;overflow=hidden;" vertex="1" parent="LY6R_Js-3bQTXguNfcxW-35">
          <mxGeometry x="30" width="150" height="30" as="geometry" />
        </mxCell>
        <mxCell id="3UeQ_0BDpi4RfPnDGkp_-0" value="Khách hàng" style="shape=table;startSize=30;container=1;collapsible=1;childLayout=tableLayout;fixedRows=1;rowLines=0;fontStyle=1;align=center;resizeLast=1;" vertex="1" parent="LY6R_Js-3bQTXguNfcxW-1">
          <mxGeometry x="340" y="920" width="180" height="130" as="geometry" />
        </mxCell>
        <mxCell id="3UeQ_0BDpi4RfPnDGkp_-1" value="" style="shape=partialRectangle;collapsible=0;dropTarget=0;pointerEvents=0;fillColor=none;top=0;left=0;bottom=1;right=0;points=[[0,0.5],[1,0.5]];portConstraint=eastwest;" vertex="1" parent="3UeQ_0BDpi4RfPnDGkp_-0">
          <mxGeometry y="30" width="180" height="30" as="geometry" />
        </mxCell>
        <mxCell id="3UeQ_0BDpi4RfPnDGkp_-2" value="PK" style="shape=partialRectangle;connectable=0;fillColor=none;top=0;left=0;bottom=0;right=0;fontStyle=1;overflow=hidden;" vertex="1" parent="3UeQ_0BDpi4RfPnDGkp_-1">
          <mxGeometry width="30" height="30" as="geometry" />
        </mxCell>
        <mxCell id="3UeQ_0BDpi4RfPnDGkp_-3" value="Mã khách hàng" style="shape=partialRectangle;connectable=0;fillColor=none;top=0;left=0;bottom=0;right=0;align=left;spacingLeft=6;fontStyle=5;overflow=hidden;" vertex="1" parent="3UeQ_0BDpi4RfPnDGkp_-1">
          <mxGeometry x="30" width="150" height="30" as="geometry" />
        </mxCell>
        <mxCell id="3UeQ_0BDpi4RfPnDGkp_-4" value="" style="shape=partialRectangle;collapsible=0;dropTarget=0;pointerEvents=0;fillColor=none;top=0;left=0;bottom=0;right=0;points=[[0,0.5],[1,0.5]];portConstraint=eastwest;" vertex="1" parent="3UeQ_0BDpi4RfPnDGkp_-0">
          <mxGeometry y="60" width="180" height="30" as="geometry" />
        </mxCell>
        <mxCell id="3UeQ_0BDpi4RfPnDGkp_-5" value="" style="shape=partialRectangle;connectable=0;fillColor=none;top=0;left=0;bottom=0;right=0;editable=1;overflow=hidden;" vertex="1" parent="3UeQ_0BDpi4RfPnDGkp_-4">
          <mxGeometry width="30" height="30" as="geometry" />
        </mxCell>
        <mxCell id="3UeQ_0BDpi4RfPnDGkp_-6" value="Tên KH" style="shape=partialRectangle;connectable=0;fillColor=none;top=0;left=0;bottom=0;right=0;align=left;spacingLeft=6;overflow=hidden;" vertex="1" parent="3UeQ_0BDpi4RfPnDGkp_-4">
          <mxGeometry x="30" width="150" height="30" as="geometry" />
        </mxCell>
        <mxCell id="3UeQ_0BDpi4RfPnDGkp_-7" value="" style="shape=partialRectangle;collapsible=0;dropTarget=0;pointerEvents=0;fillColor=none;top=0;left=0;bottom=0;right=0;points=[[0,0.5],[1,0.5]];portConstraint=eastwest;" vertex="1" parent="3UeQ_0BDpi4RfPnDGkp_-0">
          <mxGeometry y="90" width="180" height="30" as="geometry" />
        </mxCell>
        <mxCell id="3UeQ_0BDpi4RfPnDGkp_-8" value="" style="shape=partialRectangle;connectable=0;fillColor=none;top=0;left=0;bottom=0;right=0;editable=1;overflow=hidden;" vertex="1" parent="3UeQ_0BDpi4RfPnDGkp_-7">
          <mxGeometry width="30" height="30" as="geometry" />
        </mxCell>
        <mxCell id="3UeQ_0BDpi4RfPnDGkp_-9" value="Địa chỉ" style="shape=partialRectangle;connectable=0;fillColor=none;top=0;left=0;bottom=0;right=0;align=left;spacingLeft=6;overflow=hidden;" vertex="1" parent="3UeQ_0BDpi4RfPnDGkp_-7">
          <mxGeometry x="30" width="150" height="30" as="geometry" />
        </mxCell>
        <mxCell id="ag1ueS_cRKc27l8F10jO-0" value="" style="edgeStyle=entityRelationEdgeStyle;fontSize=12;html=1;endArrow=ERzeroToMany;startArrow=ERmandOne;" edge="1" parent="LY6R_Js-3bQTXguNfcxW-1" source="LY6R_Js-3bQTXguNfcxW-3" target="LY6R_Js-3bQTXguNfcxW-25">
          <mxGeometry width="100" height="100" relative="1" as="geometry">
            <mxPoint x="350" y="770" as="sourcePoint" />
            <mxPoint x="450" y="670" as="targetPoint" />
          </mxGeometry>
        </mxCell>
        <mxCell id="oxOLLsNRRWcPmOZz_Fo_-1" value="ĐơnDH_MặtHàng" style="shape=table;startSize=30;container=1;collapsible=1;childLayout=tableLayout;fixedRows=1;rowLines=0;fontStyle=1;align=center;resizeLast=1;" vertex="1" parent="LY6R_Js-3bQTXguNfcxW-1">
          <mxGeometry x="540" y="770" width="180" height="130" as="geometry" />
        </mxCell>
        <mxCell id="oxOLLsNRRWcPmOZz_Fo_-2" value="" style="shape=partialRectangle;collapsible=0;dropTarget=0;pointerEvents=0;fillColor=none;top=0;left=0;bottom=0;right=0;points=[[0,0.5],[1,0.5]];portConstraint=eastwest;" vertex="1" parent="oxOLLsNRRWcPmOZz_Fo_-1">
          <mxGeometry y="30" width="180" height="30" as="geometry" />
        </mxCell>
        <mxCell id="oxOLLsNRRWcPmOZz_Fo_-3" value="PK,FK1" style="shape=partialRectangle;connectable=0;fillColor=none;top=0;left=0;bottom=0;right=0;fontStyle=1;overflow=hidden;" vertex="1" parent="oxOLLsNRRWcPmOZz_Fo_-2">
          <mxGeometry width="60" height="30" as="geometry" />
        </mxCell>
        <mxCell id="oxOLLsNRRWcPmOZz_Fo_-4" value="Mã mặt hàng" style="shape=partialRectangle;connectable=0;fillColor=none;top=0;left=0;bottom=0;right=0;align=left;spacingLeft=6;fontStyle=5;overflow=hidden;" vertex="1" parent="oxOLLsNRRWcPmOZz_Fo_-2">
          <mxGeometry x="60" width="120" height="30" as="geometry" />
        </mxCell>
        <mxCell id="oxOLLsNRRWcPmOZz_Fo_-5" value="" style="shape=partialRectangle;collapsible=0;dropTarget=0;pointerEvents=0;fillColor=none;top=0;left=0;bottom=1;right=0;points=[[0,0.5],[1,0.5]];portConstraint=eastwest;" vertex="1" parent="oxOLLsNRRWcPmOZz_Fo_-1">
          <mxGeometry y="60" width="180" height="30" as="geometry" />
        </mxCell>
        <mxCell id="oxOLLsNRRWcPmOZz_Fo_-6" value="PK,FK2" style="shape=partialRectangle;connectable=0;fillColor=none;top=0;left=0;bottom=0;right=0;fontStyle=1;overflow=hidden;" vertex="1" parent="oxOLLsNRRWcPmOZz_Fo_-5">
          <mxGeometry width="60" height="30" as="geometry" />
        </mxCell>
        <mxCell id="oxOLLsNRRWcPmOZz_Fo_-7" value="Mã đơn đặt hàng" style="shape=partialRectangle;connectable=0;fillColor=none;top=0;left=0;bottom=0;right=0;align=left;spacingLeft=6;fontStyle=5;overflow=hidden;" vertex="1" parent="oxOLLsNRRWcPmOZz_Fo_-5">
          <mxGeometry x="60" width="120" height="30" as="geometry" />
        </mxCell>
        <mxCell id="oxOLLsNRRWcPmOZz_Fo_-11" value="" style="shape=partialRectangle;collapsible=0;dropTarget=0;pointerEvents=0;fillColor=none;top=0;left=0;bottom=0;right=0;points=[[0,0.5],[1,0.5]];portConstraint=eastwest;" vertex="1" parent="oxOLLsNRRWcPmOZz_Fo_-1">
          <mxGeometry y="90" width="180" height="30" as="geometry" />
        </mxCell>
        <mxCell id="oxOLLsNRRWcPmOZz_Fo_-12" value="" style="shape=partialRectangle;connectable=0;fillColor=none;top=0;left=0;bottom=0;right=0;editable=1;overflow=hidden;" vertex="1" parent="oxOLLsNRRWcPmOZz_Fo_-11">
          <mxGeometry width="60" height="30" as="geometry" />
        </mxCell>
        <mxCell id="oxOLLsNRRWcPmOZz_Fo_-13" value="" style="shape=partialRectangle;connectable=0;fillColor=none;top=0;left=0;bottom=0;right=0;align=left;spacingLeft=6;overflow=hidden;" vertex="1" parent="oxOLLsNRRWcPmOZz_Fo_-11">
          <mxGeometry x="60" width="120" height="30" as="geometry" />
        </mxCell>
        <mxCell id="oxOLLsNRRWcPmOZz_Fo_-14" value="" style="edgeStyle=entityRelationEdgeStyle;fontSize=12;html=1;endArrow=ERzeroToMany;startArrow=ERmandOne;exitX=1;exitY=0.5;exitDx=0;exitDy=0;" edge="1" parent="LY6R_Js-3bQTXguNfcxW-1" source="LY6R_Js-3bQTXguNfcxW-29" target="oxOLLsNRRWcPmOZz_Fo_-5">
          <mxGeometry width="100" height="100" relative="1" as="geometry">
            <mxPoint x="350" y="870" as="sourcePoint" />
            <mxPoint x="450" y="770" as="targetPoint" />
          </mxGeometry>
        </mxCell>
        <mxCell id="oxOLLsNRRWcPmOZz_Fo_-15" value="" style="edgeStyle=orthogonalEdgeStyle;fontSize=12;html=1;endArrow=ERzeroToMany;startArrow=ERmandOne;exitX=0;exitY=0.5;exitDx=0;exitDy=0;entryX=0;entryY=0.5;entryDx=0;entryDy=0;" edge="1" parent="LY6R_Js-3bQTXguNfcxW-1" source="LY6R_Js-3bQTXguNfcxW-16" target="oxOLLsNRRWcPmOZz_Fo_-2">
          <mxGeometry width="100" height="100" relative="1" as="geometry">
            <mxPoint x="340" y="855" as="sourcePoint" />
            <mxPoint x="460" y="885" as="targetPoint" />
            <Array as="points">
              <mxPoint x="480" y="635" />
              <mxPoint x="480" y="815" />
            </Array>
          </mxGeometry>
        </mxCell>
        <mxCell id="oxOLLsNRRWcPmOZz_Fo_-16" value="" style="edgeStyle=orthogonalEdgeStyle;fontSize=12;html=1;endArrow=ERzeroToMany;startArrow=ERzeroToOne;entryX=0;entryY=0.5;entryDx=0;entryDy=0;exitX=0;exitY=0.5;exitDx=0;exitDy=0;" edge="1" parent="LY6R_Js-3bQTXguNfcxW-1" source="3UeQ_0BDpi4RfPnDGkp_-1" target="LY6R_Js-3bQTXguNfcxW-35">
          <mxGeometry width="100" height="100" relative="1" as="geometry">
            <mxPoint x="350" y="970" as="sourcePoint" />
            <mxPoint x="450" y="870" as="targetPoint" />
            <Array as="points">
              <mxPoint x="120" y="975" />
              <mxPoint x="120" y="885" />
            </Array>
          </mxGeometry>
        </mxCell>
      </root>
    </mxGraphModel>
  </diagram>
</mxfile>
